Coordinates
version=1
nRows=17
nColumns=40
inDegrees=yes

Units are S.I. units (second, meters, Newtons, ...)
Angles are in degrees.

endheader
time	pelvis_tilt	pelvis_list	pelvis_rotation	pelvis_tx	pelvis_ty	pelvis_tz	hip_flexion_r	hip_adduction_r	hip_rotation_r	knee_angle_r	knee_angle_r_beta	ankle_angle_r	subtalar_angle_r	mtp_angle_r	hip_flexion_l	hip_adduction_l	hip_rotation_l	knee_angle_l	knee_angle_l_beta	ankle_angle_l	subtalar_angle_l	mtp_angle_l	lumbar_extension	lumbar_bending	lumbar_rotation	arm_flex_r	arm_add_r	arm_rot_r	elbow_flex_r	pro_sup_r	wrist_flex_r	wrist_dev_r	arm_flex_l	arm_add_l	arm_rot_l	elbow_flex_l	pro_sup_l	wrist_flex_l	wrist_dev_l
     43.33000000	     -7.35579466	     -3.52922444	     -6.20194814	      1.05965566	      0.92367846	      0.44907861	     27.64637403	     -4.46308594	     -1.04943975	     23.73175808	     23.73175808	      7.63575819	      1.02917663	     -0.33316842	     12.70812236	     -4.07392409	     -4.82523151	     22.69178421	     22.69178421	     18.55402345	    -14.71461111	      5.21256694	    -13.58035665	      6.47873212	      0.64762556	    -16.90496085	    -12.27239976	     -9.20769130	     36.08597466	     46.49628263	      0.00000000	      0.00000000	     34.28485748	    -20.08404114	     -0.20560640	     93.11989711	     47.86020068	      0.00000000	      0.00000000
     43.35071429	     -7.56667649	     -3.35712486	     -6.10197451	      1.06022276	      0.92180017	      0.45315354	     27.24415819	     -4.66921079	     -1.84026968	     21.24907919	     21.24907919	      8.43119175	      4.85306409	      3.42225772	     12.75003371	     -4.22081178	     -4.91048093	     22.98006727	     22.98006727	     18.72125880	    -14.52410810	      4.14718554	    -13.50152289	      6.34344452	      0.30547069	    -16.54958486	    -12.39022086	     -8.99651393	     38.11097088	     46.35164153	      0.00000000	      0.00000000	     34.28571950	    -19.97196716	     -1.68345773	     96.23334741	     48.07252869	      0.00000000	      0.00000000
     43.37142857	     -7.75955772	     -3.25452870	     -5.91166606	      1.06096447	      0.91992739	      0.45763583	     26.88276642	     -4.66064590	     -2.32805220	     19.39038470	     19.39038470	      8.12837512	      7.19977021	      4.07078206	     12.81361669	     -4.45012118	     -4.84763872	     23.37548116	     23.37548116	     19.13782552	    -14.32882984	      3.72343291	    -13.38057181	      6.26742198	      0.53236080	    -15.91073401	    -12.39208112	     -8.98915794	     38.64963989	     46.32155215	      0.00000000	      0.00000000	     34.87155952	    -19.45919427	     -1.86194807	     97.72719685	     48.13056970	      0.00000000	      0.00000000
     43.39214286	     -7.99213810	     -3.15047392	     -5.64949102	      1.06185149	      0.91814008	      0.46240917	     26.81826007	     -4.60487135	     -2.65815926	     18.51996648	     18.51996648	      7.85557773	      8.67048526	      4.13366309	     12.88305751	     -4.68421283	     -4.69224630	     23.69441690	     23.69441690	     19.51246254	    -14.13167547	      3.36852245	    -13.24197727	      6.23769563	      0.50415318	    -15.10213028	    -12.45850019	     -9.18854084	     39.56560615	     46.28500379	      0.00000000	      0.00000000	     34.88557432	    -19.04622582	     -2.37385340	     99.44463406	     48.21477048	      0.00000000	      0.00000000
     43.41285714	     -8.22432058	     -3.06035979	     -5.31195400	      1.06298462	      0.91660564	      0.46748694	     26.91412293	     -4.47866638	     -2.77840204	     18.39144138	     18.39144138	      7.47366662	      9.16853927	      3.23033718	     12.87388479	     -4.93729301	     -4.47792306	     23.87086469	     23.87086469	     19.84234710	    -13.89851261	      3.13890339	    -13.10727728	      6.23449743	      0.39033286	    -14.17409356	    -12.57903692	     -9.49335057	     40.52010427	     46.25142514	      0.00000000	      0.00000000	     34.54280559	    -18.60188736	     -2.87470374	    100.99531550	     48.29386442	      0.00000000	      0.00000000
     43.43357143	     -8.45129641	     -2.95636784	     -4.93078605	      1.06433848	      0.91538546	      0.47283017	     27.20775100	     -4.33363475	     -2.74368328	     19.01231697	     19.01231697	      7.42638954	      8.94490230	      2.57920968	     12.74656853	     -5.16655429	     -4.20207223	     23.83684282	     23.83684282	     20.07247418	    -13.70763192	      3.03299414	    -12.92966320	      6.21089695	      0.48952791	    -13.17963811	    -12.77241253	     -9.63746536	     41.07398128	     46.23919885	      0.00000000	      0.00000000	     34.27466978	    -18.06311105	     -2.79370025	    101.50600333	     48.30248502	      0.00000000	      0.00000000
     43.45428571	     -8.65432714	     -2.84223056	     -4.53247034	      1.06601731	      0.91444300	      0.47846774	     27.38986014	     -4.12880291	     -2.57094448	     19.66272920	     19.66272920	      6.50804723	      7.97385721	     -1.11607297	     12.47021812	     -5.42330769	     -4.05263056	     23.60716859	     23.60716859	     20.28026854	    -13.24804545	      2.96363054	    -12.84170595	      6.22713826	      0.11620737	    -12.10157017	    -12.94354022	    -10.43397081	     42.55455457	     46.19014638	      0.00000000	      0.00000000	     33.09932004	    -17.80626142	     -3.41644377	    102.81227959	     48.39516922	      0.00000000	      0.00000000
     43.47500000	     -8.82437612	     -2.77046356	     -4.04581566	      1.06797712	      0.91399683	      0.48409804	     27.60757500	     -3.96283448	     -2.66538019	     20.74077741	     20.74077741	      6.79359083	      7.22583060	     -1.57309387	     12.04775280	     -5.69170615	     -3.80229436	     23.16051767	     23.16051767	     20.33778248	    -12.85015047	      2.99571590	    -12.73170903	      6.27619299	      0.11871491	    -10.97540020	    -13.33804060	    -10.58219157	     43.09373053	     46.18237126	      0.00000000	      0.00000000	     32.28055092	    -17.18932694	     -2.98258377	    102.65023419	     48.36219611	      0.00000000	      0.00000000
     43.49571429	     -9.00986268	     -2.52172127	     -3.61528636	      1.07006262	      0.91364546	      0.49004778	     28.00613722	     -3.85590140	     -2.31461992	     22.15344002	     22.15344002	      7.14379484	      5.73078107	     -2.22417242	     11.54280517	     -5.82794029	     -3.77873702	     22.53501552	     22.53501552	     20.33795520	    -12.15473360	      3.00284139	    -12.56384483	      6.08021041	     -0.08725472	     -9.81270672	    -13.70702166	    -10.93162238	     44.06583823	     46.16579896	      0.00000000	      0.00000000	     31.03112294	    -17.03685320	     -2.64935354	    102.26995883	     48.33113994	      0.00000000	      0.00000000
     43.51642857	     -9.15598868	     -2.54130909	     -3.09850895	      1.07236007	      0.91372136	      0.49589753	     28.00930021	     -3.58269111	     -2.53542556	     23.03036796	     23.03036796	      7.50762580	      4.89424451	     -2.55661989	     11.04813751	     -6.23244729	     -3.56293110	     22.00894611	     22.00894611	     20.25516370	    -11.63358148	      3.08345880	    -12.49081329	      6.21773773	     -0.18983532	     -8.55905256	    -14.30963960	    -11.18287300	     44.79271601	     46.15782200	      0.00000000	      0.00000000	     29.66162432	    -16.40351984	     -2.07772011	    101.76788204	     48.27917371	      0.00000000	      0.00000000
     43.53714286	     -9.27320573	     -2.30278682	     -2.66635416	      1.07486756	      0.91400936	      0.50199555	     28.06880720	     -3.38324621	     -2.03718849	     24.00410679	     24.00410679	      7.93498298	      3.08895425	     -2.81869756	     10.36316723	     -6.45277574	     -3.86175020	     21.21194412	     21.21194412	     20.10441792	    -10.45489958	      3.04892530	    -12.34186095	      6.06259684	     -0.85532126	     -7.24730113	    -14.70464080	    -11.71991673	     46.41010290	     46.12583948	      0.00000000	      0.00000000	     27.76439599	    -16.84657180	     -1.61743862	    100.27387630	     48.21616662	      0.00000000	      0.00000000
     43.55785714	     -9.38097045	     -2.28579340	     -2.20925683	      1.07741787	      0.91453014	      0.50798014	     27.84715605	     -3.05522054	     -2.04496975	     24.49622855	     24.49622855	      8.35333533	      2.02681505	     -2.85871533	      9.82363388	     -6.91345660	     -4.05672551	     20.69562750	     20.69562750	     19.90689243	     -9.44768789	      3.01340023	    -12.22870954	      6.15714439	     -1.27857381	     -5.95661427	    -15.29916103	    -12.15919959	     47.86764391	     46.09559516	      0.00000000	      0.00000000	     25.83921281	    -16.78425717	     -0.89352521	     98.58841412	     48.13307077	      0.00000000	      0.00000000
     43.57857143	     -9.47537329	     -2.27607713	     -1.77100677	      1.07990525	      0.91523731	      0.51389950	     27.50656817	     -2.73819869	     -2.15735163	     24.73709883	     24.73709883	      8.76429624	      1.28412579	     -2.71644119	      9.39361476	     -7.40514737	     -4.28875120	     20.38844057	     20.38844057	     19.66849834	     -8.40040771	      2.93497745	    -12.13545577	      6.21749758	     -1.66152858	     -4.56920218	    -15.95753890	    -12.52239169	     49.41298164	     46.05875723	      0.00000000	      0.00000000	     23.99074324	    -16.76641936	     -0.01942556	     96.26882751	     48.03027434	      0.00000000	      0.00000000
     43.59928571	     -9.55834033	     -2.30041235	     -1.40192902	      1.08233749	      0.91606023	      0.51979513	     27.06880906	     -2.38681222	     -2.37202164	     24.76812503	     24.76812503	      9.22090148	      0.81626478	     -2.41551823	      9.11469597	     -7.97204220	     -4.62139701	     20.38505312	     20.38505312	     19.43032837	     -7.35054126	      2.77891892	    -12.03205184	      6.31219979	     -1.91323157	     -3.21473563	    -16.69053535	    -12.75446396	     51.04303965	     46.01156980	      0.00000000	      0.00000000	     22.21135368	    -16.64063339	      1.12174788	     93.18675313	     47.89990802	      0.00000000	      0.00000000
     43.62000000	     -9.64227939	     -2.35109340	     -1.09764482	      1.08465254	      0.91695572	      0.52565527	     26.59250228	     -2.00696553	     -2.60378552	     24.68161855	     24.68161855	      9.81527466	      0.64465685	     -1.57610726	      9.04892330	     -8.63342722	     -5.08169438	     20.76931093	     20.76931093	     19.15959188	     -6.15730173	      2.43198904	    -11.87440830	      6.40338942	     -1.19496241	     -2.76462951	    -17.81785256	    -12.75571113	     53.28379889	     45.91675502	      0.00000000	      0.00000000	     21.38447479	    -15.94490282	      3.33469375	     88.39818861	     47.70047734	      0.00000000	      0.00000000
     43.64071429	     -9.69562204	     -2.37580987	     -0.82093293	      1.08686654	      0.91799729	      0.53135136	     26.00114932	     -1.67078917	     -2.90758967	     24.38522936	     24.38522936	     10.23453559	      0.70001903	     -1.11876706	      9.12732169	     -9.20220627	     -5.17582270	     21.42501790	     21.42501790	     18.68551537	     -5.66950637	      2.11371836	    -11.75877131	      6.44645786	     -1.04545884	     -1.56219432	    -18.72335671	    -12.96431236	     55.00203494	     45.85504947	      0.00000000	      0.00000000	     19.93779792	    -15.70504919	      5.13149391	     84.07200725	     47.53803371	      0.00000000	      0.00000000
     43.66142857	     -9.73716426	     -2.37787374	     -0.56644793	      1.08887681	      0.91908557	      0.53690449	     25.37114331	     -1.35939311	     -3.22391646	     23.97748637	     23.97748637	     10.47559238	      0.79021526	     -0.97508382	      9.47402145	     -9.77000618	     -5.19020405	     22.54313124	     22.54313124	     18.06336439	     -5.38049577	      1.67008055	    -11.66413149	      6.42423079	     -1.34726301	      0.24243707	    -19.48469220	    -12.89265961	     56.28202457	     45.81007908	      0.00000000	      0.00000000	     18.07150200	    -15.65235064	      6.30612111	     79.94478576	     47.39723237	      0.00000000	      0.00000000
